{"title":"Killing Season (2013) 720p BRrip x264 Junaid-Zia (PimpRG)","uid":8835412,"size":852844272,"categoryP":"video","categoryS":"hd___movies","magnet":"?xt=urn:btih:e5cd70d39b7cc6e5c3a1805e67b896418902ef57&amp;dn=Killing+Season+%282013%29+720p+BRrip+x264+Junaid-Zia+%28PimpRG%29&amp;tr=udp%3A%2F%2Ftracker.openbittorrent.com%3A80&amp;tr=udp%3A%2F%2Fopen.demonii.com%3A1337&amp;tr=udp%3A%2F%2Ftracker.coppersurfer.tk%3A6969&amp;tr=udp%3A%2F%2Fexodus.desync.com%3A6969","seeders":1,"leechers":1,"uploader":"junaidzia","files":13,"time":1377102083,"description":" &lt;a href=&quot;http://imageshack.us/a/img407/9853/9e8n.jpg&quot; rel=&quot;nofollow&quot; target=&quot;_NEW&quot;&gt;http://imageshack.us/a/img407/9853/9e8n.jpg&lt;/a&gt;\n\nIMDB : \n\n         &lt;a href=&quot; http://www.imdb.com/title/tt1480295&quot; rel=&quot;nofollow&quot; target=&quot;_NEW&quot;&gt; http://www.imdb.com/title/tt1480295&lt;/a&gt;\n\n\n[b]General[/b]\nFormat                         : Matroska\nFormat version                 : Version 4 / Version 2\nFile size                      : 812 MiB\nDuration                       : 1h 30mn\nOverall bit rate               : 1 252 Kbps\n\n\n[b]Video[/b]\nID                             : 1\nFormat                         : AVC\nFormat/Info                    : Advanced Video Codec\nFormat profile                 : &lt;a class=&quot;__cf_email__&quot; href=&quot;/cdn-cgi/l/email-protection&quot; data-cfemail=&quot;420a2b252a020e766c73&quot;&gt;[email&amp;#160;protected]&lt;/a&gt;&lt;script cf-hash='f9e31' type=&quot;text/javascript&quot;&gt;\n/* &lt;![CDATA[ */!function(){try{var t=&quot;currentScript&quot;in document?document.currentScript:function(){for(var t=document.getElementsByTagName(&quot;script&quot;),e=t.length;e--;)if(t[e].getAttribute(&quot;cf-hash&quot;))return t[e]}();if(t&amp;&amp;t.previousSibling){var e,r,n,i,c=t.previousSibling,a=c.getAttribute(&quot;data-cfemail&quot;);if(a){for(e=&quot;&quot;,r=parseInt(a.substr(0,2),16),n=2;a.length-n;n+=2)i=parseInt(a.substr(n,2),16)^r,e+=String.fromCharCode(i);e=document.createTextNode(e),c.parentNode.replaceChild(e,c)}}}catch(u){}}();/* ]]&gt; */&lt;/script&gt;\nFormat settings, CABAC         : Yes\nFormat settings, ReFrames      : 5 frames\nCodec ID                       : V_MPEG4/ISO/AVC\nDuration                       : 1h 30mn\nWidth                          : 1 280 pixels\nHeight                         : 720 pixels\nDisplay aspect ratio           : 16:9\nFrame rate mode                : Constant\nFrame rate                     : 23.976 fps\nColor space                    : YUV\nChroma subsampling             : 4:2:0\nBit depth                      : 8 bits\nScan type                      : Progressive\nBits/(Pixel*Frame)             : 0.048\nStream size                    : 672 MiB (83%)\nTitle                          : Encoder Junaid-Zia\nWriting library                : x264 core 135 r2345 f0c1c53\nLanguage                       : English\nDefault                        : Yes\nForced                         : No\n\n[b]Audio[/b]\nID                             : 2\nFormat                         : AC-3\nFormat/Info                    : Audio Coding 3\nMode extension                 : CM (complete main)\nFormat settings, Endianness    : Big\nCodec ID                       : A_AC3\nDuration                       : 1h 30mn\nBit rate mode                  : Constant\nBit rate                       : 192 Kbps\nChannel(s)                     : 6 channels\nChannel positions              : Front: L C R, Side: L R, LFE\nSampling rate                  : 48.0 KHz\nBit depth                      : 16 bits\nCompression mode               : Lossy\nStream size                    : 125 MiB (15%)\nTitle                          : Encoder Junaid-Zia\nLanguage                       : English\nDefault                        : Yes\nForced                         : No\n\n[b]Text[/b]\nID                             : 3\nFormat                         : UTF-8\nCodec ID                       : S_TEXT/UTF8\nCodec ID/Info                  : UTF-8 Plain Text\nTitle                          : Subtitles are SOFT encoded\nLanguage                       : English\nDefault                        : Yes\nForced                         : No\n\nScreens : \n &lt;a href=&quot;\nhttp://www.piczhub.com/image1/2013/08/21/0.jpg&quot; rel=&quot;nofollow&quot; target=&quot;_NEW&quot;&gt;\nhttp://www.piczhub.com/image1/2013/08/21/0.jpg&lt;/a&gt; &lt;a href=&quot;\nhttp://www.piczhub.com/image1/2013/08/21/1.jpg&quot; rel=&quot;nofollow&quot; target=&quot;_NEW&quot;&gt;\nhttp://www.piczhub.com/image1/2013/08/21/1.jpg&lt;/a&gt; &lt;a href=&quot;\nhttp://www.piczhub.com/image1/2013/08/21/2.jpg&quot; rel=&quot;nofollow&quot; target=&quot;_NEW&quot;&gt;\nhttp://www.piczhub.com/image1/2013/08/21/2.jpg&lt;/a&gt; &lt;a href=&quot;\nhttp://www.piczhub.com/image1/2013/08/21/3.jpg&quot; rel=&quot;nofollow&quot; target=&quot;_NEW&quot;&gt;\nhttp://www.piczhub.com/image1/2013/08/21/3.jpg&lt;/a&gt; &lt;a href=&quot;\nhttp://www.piczhub.com/image1/2013/08/21/4.jpg&quot; rel=&quot;nofollow&quot; target=&quot;_NEW&quot;&gt;\nhttp://www.piczhub.com/image1/2013/08/21/4.jpg&lt;/a&gt; &lt;a href=&quot;\nhttp://www.piczhub.com/image1/2013/08/21/5.jpg&quot; rel=&quot;nofollow&quot; target=&quot;_NEW&quot;&gt;\nhttp://www.piczhub.com/image1/2013/08/21/5.jpg&lt;/a&gt; &lt;a href=&quot;\nhttp://www.piczhub.com/image1/2013/08/21/6.jpg&quot; rel=&quot;nofollow&quot; target=&quot;_NEW&quot;&gt;\nhttp://www.piczhub.com/image1/2013/08/21/6.jpg&lt;/a&gt; &lt;a href=&quot;\nhttp://www.piczhub.com/image1/2013/08/21/7.jpg&quot; rel=&quot;nofollow&quot; target=&quot;_NEW&quot;&gt;\nhttp://www.piczhub.com/image1/2013/08/21/7.jpg&lt;/a&gt; &lt;a href=&quot;\nhttp://www.piczhub.com/image1/2013/08/21/8.jpg&quot; rel=&quot;nofollow&quot; target=&quot;_NEW&quot;&gt;\nhttp://www.piczhub.com/image1/2013/08/21/8.jpg&lt;/a&gt;\n\n\n[b]Seed After Downloading, Remember Sharing is Caring.[/b]","torrent":{"xt":"urn:btih:e5cd70d39b7cc6e5c3a1805e67b896418902ef57","amp;dn":"Killing+Season+%282013%29+720p+BRrip+x264+Junaid-Zia+%28PimpRG%29","amp;tr":["udp%3A%2F%2Ftracker.openbittorrent.com%3A80","udp%3A%2F%2Fopen.demonii.com%3A1337","udp%3A%2F%2Ftracker.coppersurfer.tk%3A6969","udp%3A%2F%2Fexodus.desync.com%3A6969"],"infoHash":"e5cd70d39b7cc6e5c3a1805e67b896418902ef57","infoHashBuffer":{"type":"Buffer","data":[229,205,112,211,155,124,198,229,195,161,128,94,103,184,150,65,137,2,239,87]},"announce":[],"urlList":[]}}